<svg width="16" height="16" viewBox="0 0 16 16" fill="none" xmlns="http://www.w3.org/2000/svg">
<path d="M7.999 0.166534C3.582 0.166534 0 3.83898 0 8.36929C0 11.9927 2.292 15.0667 5.472 16.1523C5.872 16.2279 6.018 15.9746 6.018 15.7571C6.018 15.562 6.011 15.0463 6.007 14.362C3.782 14.8574 3.312 13.2621 3.312 13.2621C2.949 12.3144 2.424 12.0622 2.424 12.0622C1.697 11.5536 2.478 11.5638 2.478 11.5638C3.281 11.622 3.703 12.4094 3.703 12.4094C4.417 13.6625 5.576 13.301 6.032 13.0906C6.104 12.5605 6.311 12.199 6.54 11.9937C4.764 11.7864 2.896 11.0828 2.896 7.94036C2.896 7.04472 3.208 6.31247 3.72 5.73853C3.637 5.53121 3.363 4.69684 3.798 3.56835C3.798 3.56835 4.47 3.34776 5.998 4.40885C6.636 4.22706 7.32 4.13617 8.001 4.13311C8.68 4.13719 9.365 4.22706 10.004 4.40987C11.531 3.34878 12.202 3.56937 12.202 3.56937C12.638 4.69888 12.364 5.53223 12.282 5.73955C12.795 6.3135 13.104 7.04574 13.104 7.94138C13.104 11.092 11.234 11.7854 9.452 11.9886C9.739 12.2419 9.995 12.7423 9.995 13.5072C9.995 14.6041 9.985 15.4885 9.985 15.7571C9.985 15.9767 10.129 16.232 10.535 16.1513C13.71 15.0647 16 11.9917 16 8.36929C16 3.83898 12.418 0.166534 7.999 0.166534Z" fill="#C4C4CC"/>
</svg>
